<svg xmlns="http://www.w3.org/2000/svg" width="224" height="300">
<circle cx="113" cy="299" r="13" fill="rgba(11, 127, 32, 0.19607843137254902)" />
<circle cx="85" cy="168" r="41" fill="rgba(136, 113, 182, 0.9568627450980393)" />
<circle cx="211" cy="68" r="45" fill="rgba(123, 196, 208, 0.29411764705882354)" />
<circle cx="134" cy="128" r="30" fill="rgba(174, 143, 125, 0.8784313725490196)" />
<circle cx="174" cy="88" r="19" fill="rgba(246, 203, 158, 0.41568627450980394)" />
<circle cx="195" cy="186" r="10" fill="rgba(60, 157, 200, 0.803921568627451)" />
<circle cx="105" cy="206" r="16" fill="rgba(188, 52, 48, 0.5803921568627451)" />
<circle cx="54" cy="211" r="30" fill="rgba(39, 65, 184, 0.8862745098039215)" />
<circle cx="81" cy="171" r="32" fill="rgba(30, 246, 190, 0.33725490196078434)" />
<circle cx="208" cy="170" r="11" fill="rgba(113, 196, 114, 0.32941176470588235)" />
<circle cx="72" cy="66" r="28" fill="rgba(9, 26, 90, 0.6274509803921569)" />
<circle cx="12" cy="54" r="43" fill="rgba(245, 74, 25, 0.9450980392156862)" />
<circle cx="139" cy="245" r="38" fill="rgba(133, 183, 169, 0.7529411764705882)" />
<circle cx="129" cy="133" r="18" fill="rgba(25, 17, 215, 0.6235294117647059)" />
<circle cx="131" cy="165" r="38" fill="rgba(62, 126, 19, 0.7803921568627451)" />
<circle cx="121" cy="52" r="23" fill="rgba(253, 104, 164, 0.7098039215686275)" />
<circle cx="105" cy="84" r="16" fill="rgba(189, 140, 197, 0.23137254901960785)" />
<circle cx="211" cy="194" r="49" fill="rgba(1, 226, 141, 0.7294117647058823)" />
<circle cx="77" cy="81" r="23" fill="rgba(152, 211, 75, 0.3411764705882353)" />
<circle cx="128" cy="113" r="50" fill="rgba(108, 99, 34, 0.3568627450980392)" />
</svg>
